<svg width="640" height="320" viewBox="0 0 640 320" fill="none" xmlns="http://www.w3.org/2000/svg">
<rect width="640" height="320" fill="white"/>
<path d="M319.91 139.5C305.749 139.5 295.539 148.725 295.539 162.562C295.539 176.4 307.032 185.625 321.193 185.625C329.748 185.625 337.29 182.242 341.959 176.541L332.147 170.878C329.556 173.709 325.618 175.362 321.193 175.362C315.049 175.362 309.828 172.159 307.891 167.034H343.832C344.114 165.599 344.281 164.113 344.281 162.55C344.281 148.725 334.071 139.5 319.91 139.5V139.5ZM307.776 158.078C309.379 152.966 313.766 149.75 319.897 149.75C326.041 149.75 330.428 152.966 332.019 158.078H307.776V158.078ZM458.03 139.5C443.869 139.5 433.659 148.725 433.659 162.562C433.659 176.4 445.151 185.625 459.312 185.625C467.868 185.625 475.41 182.242 480.079 176.541L470.266 170.878C467.675 173.709 463.738 175.362 459.312 175.362C453.168 175.362 447.948 172.159 446.011 167.034H481.952C482.234 165.599 482.401 164.113 482.401 162.55C482.401 148.725 472.19 139.5 458.03 139.5V139.5ZM445.908 158.078C447.512 152.966 451.898 149.75 458.03 149.75C464.174 149.75 468.56 152.966 470.151 158.078H445.908ZM395.845 162.562C395.845 170.25 400.873 175.375 408.672 175.375C413.957 175.375 417.92 172.979 419.959 169.071L429.81 174.747C425.732 181.538 418.087 185.625 408.672 185.625C394.498 185.625 384.301 176.4 384.301 162.562C384.301 148.725 394.511 139.5 408.672 139.5C418.087 139.5 425.719 143.587 429.81 150.378L419.959 156.054C417.92 152.146 413.957 149.75 408.672 149.75C400.886 149.75 395.845 154.875 395.845 162.562ZM501.641 125.406V184.344H490.097V125.406H501.641ZM186.395 119L233.79 201H139L186.395 119ZM304.89 125.406L269.347 186.906L233.803 125.406H247.13L269.347 163.844L291.563 125.406H304.89ZM380.453 140.781V153.197C379.17 152.825 377.81 152.569 376.348 152.569C368.896 152.569 363.521 157.694 363.521 165.381V184.344H351.977V140.781H363.521V152.569C363.521 146.06 371.102 140.781 380.453 140.781Z" fill="black"/>
</svg>
